<?xml version="1.0" encoding="utf-8" ?>
<svg xmlns="http://www.w3.org/2000/svg" xmlns:xlink="http://www.w3.org/1999/xlink" width="1024" height="1024">
	<path fill="#04B2C4" d="M606.498 98.923Q623.248 99.0621 639.998 99.0085Q640.379 121.738 639.965 144.467C628.88 143.549 617.568 143.963 606.449 143.994Q606.762 121.459 606.498 98.923Z"/>
	<path fill="#04B2C4" d="M382.163 98.8834C394.154 99.3689 406.481 100.25 418.421 98.8199C418.932 113.986 418.623 129.228 418.601 144.404C406.72 145.224 394.28 144.487 382.348 144.38L382.163 98.8834Z"/>
	<path fill="#008ACB" d="M97.4871 604.142C107.841 603.951 118.154 604.433 128.5 604.427L174.713 604.006C178.717 615.335 182.329 626.742 186.143 638.128C169.361 637.73 152.369 639.431 135.661 638.072C130.678 635.821 104.63 636.96 97.5563 636.997L97.4871 604.142Z"/>
	<path fill="#008ACB" d="M849.978 604.01C875.756 604.015 901.627 603.55 927.393 604.089Q927.747 620.542 927.338 636.994C922.039 636.986 892.451 635.95 889.706 638.154C872.398 637.436 854.886 637.973 837.563 638.073C841.672 626.743 845.504 615.194 849.978 604.01Z"/>
	<path fill="#008ACB" d="M132.607 383.977C145.987 382.681 159.531 383.045 172.959 383.066C177.815 383.074 184.191 382.448 188.873 383.461Q181.936 400.511 176.201 418.002L97.1799 418.005C97.7971 406.75 97.5799 395.537 97.3172 384.277C108.923 385.132 120.99 384.634 132.607 383.977Z"/>
	<path fill="#008ACB" d="M834.753 383.958C845.709 384.069 857.683 385.102 868.513 383.666C876.502 384.749 885.142 384.34 893.195 384.286L927.515 384.044Q927.679 401.033 926.707 417.996Q886.5 417.767 846.292 418.006Q841.082 400.793 834.753 383.958Z"/>
	<path fill="#008ACB" d="M605.554 850.367C610.528 848.225 615.878 846.699 620.986 844.88C627.414 842.591 633.694 839.995 639.975 837.33C640.669 855.587 641.441 874.387 640.499 892.631C638.844 904.467 639.836 917.484 639.963 929.447L606.056 929.454L605.865 889.091C605.932 876.187 606.252 863.26 605.554 850.367Z"/>
	<path fill="#008ACB" d="M380.755 836.317Q399.438 844.36 418.557 851.302L418.505 929.461L381.634 929.441C381.794 920.966 383.459 899.372 380.816 892.383C381.204 882.447 381.015 872.425 381.045 862.479C381.07 853.833 381.416 844.935 380.755 836.317Z"/>
	<path fill="#04B2C4" d="M284.667 262.382C288.144 266.437 286.098 306.711 285.889 314.54C278.982 323.846 271.178 332.429 264.42 341.856C247.847 364.975 236.386 390.933 226.528 417.481L188.375 417.572L187.732 417.435C187.019 416.645 187.116 417.026 187.068 416.085C186.776 410.356 192.726 398.52 194.996 392.984C216.422 340.73 245.53 302.559 284.667 262.382Z"/>
	<path fill="#04B2C4" d="M736.106 259.719C738.033 260.915 739.676 262.335 741.3 263.907C746.124 268.578 750.481 273.844 755.026 278.794C786.877 313.478 812.204 352.35 827.896 396.959C829.681 402.031 834.39 412.652 834.464 417.697L798.395 417.957C789.277 394.237 778.488 371.913 763.939 351C755.206 338.447 745.528 326.749 736.402 314.512C735.43 296.381 736.114 277.888 736.106 259.719Z"/>
	<path fill="#00386F" d="M284.854 406.93C287.384 410.143 286.148 435.332 286.08 441.103C277.213 451.208 267.376 460.581 257.922 470.143Q237.376 490.867 217.215 511.966C227.709 523.501 238.719 534.664 249.797 545.641C258.695 554.458 280.738 573.998 285.952 583.481L285.918 617.738L268.415 599.96C238.982 570.997 210.66 540.943 181.508 511.706C203.241 490.58 224.358 468.966 245.585 447.342C258.748 433.933 272.197 420.828 284.854 406.93Z"/>
	<path fill="#00386F" d="M737.461 405.181C743.443 409.225 760.563 429.356 766.683 435.688L841.89 512.697C831.915 524.806 820.289 535.592 809.286 546.757L755.126 601.896Q745.72 611.431 736.941 621.545L737.231 582.114Q770.644 546.722 805.238 512.482Q784.479 491.476 763.941 470.255C755.077 461.146 745.806 452.204 737.456 442.627C736.489 430.289 737.059 417.546 737.461 405.181Z"/>
	<path fill="#00386F" d="M491.791 94.7317C513.269 94.0259 534.511 94.8343 555.931 96.3544C569.149 97.2923 582.518 98.9841 595.757 99.0122Q595.978 121.755 595.701 144.497L534.25 144.484L429.194 144.483C428.989 129.538 428.63 114.493 429.231 99.5579C448.337 96.6381 472.186 95.4102 491.791 94.7317Z"/>
	<path fill="#00386F" d="M132.607 383.977C156.424 323.421 191.153 267.58 237.72 221.884C253.149 206.744 269.998 193.009 286.469 179.027L286.475 246.708C275.628 257.195 264.637 267.657 254.606 278.939C226.947 310.044 206.305 345.845 188.873 383.461C184.191 382.448 177.815 383.074 172.959 383.066C159.531 383.045 145.987 382.681 132.607 383.977Z"/>
	<path fill="#04B2C4" d="M185.464 604.016C198.192 603.922 211.037 603.442 223.73 604.521C229.552 618.583 235.203 632.879 242.318 646.346C270.661 699.986 315.171 745.068 366.841 776.511C383.549 786.679 401.202 795.029 418.544 804.015L418.48 839.849C400.117 834.181 382.36 825.923 365.26 817.233Q361.995 815.559 358.765 813.82Q355.535 812.081 352.341 810.277Q349.146 808.473 345.989 806.605Q342.832 804.737 339.713 802.806Q336.594 800.875 333.514 798.881Q330.435 796.887 327.396 794.832Q324.357 792.776 321.361 790.66Q318.364 788.543 315.411 786.367Q312.458 784.191 309.549 781.955Q306.64 779.72 303.777 777.426Q300.914 775.132 298.098 772.781Q295.281 770.43 292.513 768.023Q289.745 765.616 287.026 763.153Q284.307 760.691 281.638 758.174Q278.969 755.657 276.351 753.086Q273.733 750.516 271.168 747.894Q268.603 745.271 266.091 742.597Q263.579 739.924 261.122 737.2Q258.664 734.476 256.262 731.703Q253.86 728.93 251.515 726.109Q249.169 723.289 246.881 720.421Q244.593 717.554 242.363 714.641Q240.133 711.728 237.962 708.77Q235.792 705.813 233.681 702.812Q231.57 699.812 229.521 696.769Q227.471 693.727 225.483 690.643Q223.495 687.56 221.57 684.437Q219.644 681.315 217.782 678.154Q215.921 674.993 214.123 671.795Q212.325 668.597 210.592 665.363Q208.859 662.13 207.192 658.862Q205.524 655.595 203.923 652.294C196.47 636.616 190.825 620.494 185.464 604.016Z"/>
	<path fill="#04B2C4" d="M800.422 604.058L838.872 604.066Q835.676 613.998 832.098 623.799C796.452 719.804 725.229 787.037 633.125 829.187Q619.807 834.772 606.155 839.482C605.886 827.019 606.251 814.542 606.054 802.075C622.311 793.995 638.615 786.75 654.229 777.375Q657.333 775.532 660.397 773.624Q663.462 771.717 666.486 769.746Q669.51 767.775 672.493 765.741Q675.475 763.707 678.414 761.611Q681.353 759.516 684.248 757.359Q687.143 755.202 689.992 752.986Q692.841 750.769 695.643 748.494Q698.445 746.218 701.199 743.884Q703.953 741.551 706.658 739.16Q709.362 736.769 712.016 734.323Q714.671 731.876 717.273 729.374Q719.875 726.873 722.425 724.317Q724.975 721.762 727.47 719.154Q729.966 716.546 732.407 713.886Q734.847 711.227 737.232 708.516Q739.616 705.806 741.944 703.047Q744.271 700.288 746.541 697.481Q748.81 694.673 751.02 691.819Q753.23 688.965 755.38 686.066Q757.53 683.166 759.619 680.222Q761.708 677.278 763.736 674.291Q765.763 671.304 767.727 668.276Q769.691 665.247 771.592 662.178Q773.492 659.109 775.328 656.001Q777.164 652.894 778.935 649.748Q780.706 646.602 782.41 643.42Q784.115 640.238 785.753 637.021Q787.391 633.805 788.961 630.554Q790.531 627.304 792.033 624.021Q793.535 620.739 794.968 617.426Q796.401 614.113 797.765 610.77Q799.129 607.428 800.422 604.058Z"/>
	<path fill="#00386F" d="M736.105 180.985C791.365 219.392 834.399 266.762 865.295 326.624L926.921 326.635L883.389 369.052C878.423 373.867 873.629 379.034 868.513 383.666C857.683 385.102 845.709 384.069 834.753 383.958C818.515 343.724 796.29 306.784 766.357 275.19C756.658 264.952 745.844 255.906 736.055 245.796L735.843 207.038C735.772 198.402 735.363 189.593 736.105 180.985Z"/>
	<path fill="#008ACB" d="M802.387 427.039Q864.708 426.914 927.026 427.51C927.855 448.536 927.5 469.694 927.543 490.736Q927.719 543.307 927.347 595.877Q888.111 595.603 848.875 595.863L804.639 596.045Q825.602 574.658 846.139 552.861C858.595 539.389 870.636 525.388 883.6 512.404C877.158 506.009 871.082 499.245 864.805 492.687C843.931 470.877 823.443 448.665 802.387 427.039Z"/>
	<path fill="#008ACB" d="M96.9968 427.03L223.637 427.059C211.378 438.868 199.707 451.549 187.801 463.742C172.048 479.874 156.018 495.765 140.681 512.293Q160.616 533.279 180.798 554.027Q201.438 574.625 221.827 595.471Q159.678 595.42 97.5308 596.011C97.968 560.586 97.5004 525.11 97.5234 489.678L97.5452 452.418C97.5465 443.989 97.8229 435.424 96.9968 427.03Z"/>
	<path fill="#008ACB" d="M595.427 810.91C596.196 811.728 596.046 812.757 596.085 813.862C596.509 826.025 595.97 838.397 595.962 850.58L595.986 929.542C584.674 928.939 573.196 929.432 561.863 929.453L498.987 929.534L456.303 929.521C446.953 929.444 437.579 928.808 428.245 929.571L428.441 869.219C428.472 849.986 428.021 830.732 428.316 811.505C455.684 832.533 482.312 854.718 510.142 875.109C523.517 866.362 536.006 856.775 548.73 847.139Q572.387 829.422 595.427 810.91Z"/>
	<path fill="#00386F" d="M837.563 638.073C854.886 637.973 872.398 637.436 889.706 638.154C880.159 665.325 868.147 692.861 853.629 717.736Q851.761 720.91 849.834 724.048Q847.908 727.187 845.924 730.289Q843.94 733.392 841.9 736.457Q839.859 739.523 837.762 742.55Q835.665 745.578 833.513 748.566Q831.361 751.554 829.154 754.502Q826.947 757.45 824.686 760.357Q822.425 763.264 820.111 766.129Q817.797 768.994 815.431 771.815Q813.064 774.637 810.646 777.414Q808.228 780.192 805.759 782.924Q803.29 785.657 800.772 788.343Q798.253 791.03 795.685 793.67Q793.117 796.309 790.501 798.901Q787.885 801.493 785.222 804.037Q782.559 806.58 779.849 809.074Q777.139 811.568 774.384 814.011Q771.629 816.454 768.829 818.847Q766.029 821.239 763.186 823.579Q760.342 825.919 757.456 828.207Q754.57 830.494 751.643 832.728Q748.715 834.962 745.747 837.142Q742.778 839.321 739.77 841.446Q736.762 843.57 733.716 845.639Q730.669 847.708 727.585 849.72Q724.501 851.732 721.38 853.687Q718.259 855.642 715.103 857.54Q711.946 859.437 708.756 861.276Q705.565 863.115 702.341 864.894Q699.117 866.674 695.861 868.394Q692.604 870.114 689.317 871.773Q686.029 873.433 682.712 875.032Q662.004 884.787 640.499 892.631C641.441 874.387 640.669 855.587 639.975 837.33C662.266 827.096 683.805 815.879 704.208 802.211C763.201 762.693 812.29 704.745 837.563 638.073Z"/>
	<path fill="#00386F" d="M135.661 638.072C152.369 639.431 169.361 637.73 186.143 638.128C192.362 654.296 200.632 670.108 209.37 685.056Q212.394 690.192 215.582 695.228Q218.77 700.263 222.119 705.193Q225.468 710.123 228.975 714.942Q232.482 719.761 236.143 724.464Q239.804 729.168 243.615 733.75Q247.426 738.332 251.383 742.789Q255.34 747.246 259.439 751.572Q263.538 755.899 267.775 760.09Q272.012 764.282 276.382 768.335Q280.753 772.387 285.251 776.296Q289.75 780.205 294.373 783.967Q298.996 787.728 303.738 791.339Q308.481 794.949 313.337 798.404Q318.194 801.859 323.159 805.155Q328.125 808.451 333.194 811.585Q338.264 814.719 343.432 817.687C355.505 824.62 368.081 830.577 380.755 836.317C381.416 844.935 381.07 853.833 381.045 862.479C381.015 872.425 381.204 882.447 380.816 892.383C380.592 892.319 380.366 892.264 380.145 892.193C369.173 888.655 358.351 883.083 347.902 878.215C268.301 841.131 198.752 776.114 159.124 697.462L96.5836 697.403C110.739 681.575 125.658 666.436 139.769 650.547C138.188 646.499 136.649 642.303 135.661 638.072Z"/>
	<defs>
		<linearGradient id="gradient_0" gradientUnits="userSpaceOnUse" x1="270.41458" y1="523.68365" x2="777.20398" y2="411.7861">
			<stop offset="0" stop-color="#001B37"/>
			<stop offset="1" stop-color="#033361"/>
		</linearGradient>
	</defs>
	<path fill="url(#gradient_0)" d="M448.58 158.75L722.556 158.557C723.738 170.368 722.993 182.747 722.93 194.613L722.74 255.679L722.647 464.785L722.894 600.193L723.31 638.958C723.389 645.798 723.984 653.161 723.072 659.945C722.006 667.868 717.558 674.805 711.999 680.387C704.126 688.292 694.001 694.349 684.862 700.718C677.293 705.993 669.892 711.545 662.485 717.046L550.194 801.601C544.294 805.981 516.547 828.357 511.66 828.339C509.397 828.331 506.88 827.319 505.044 826.045C501.081 823.296 497.343 819.943 493.575 816.917Q483.233 808.59 472.69 800.519L379.004 728.962C364.924 718.219 350.879 707.385 336.614 696.89C325.033 688.37 311.38 680.278 301.763 669.591C301.071 660.293 301.522 650.73 301.528 641.396L301.583 589.959L301.982 423.27L301.521 245.641L301.477 192.135C301.472 181.105 301.116 169.932 301.866 158.928L448.58 158.75Z"/>
	<path fill="#08DDD6" d="M469.975 203.806C477.658 206.586 484.431 215.914 489.773 221.698C484.005 228.115 477.71 234.105 471.595 240.192L471.1 240.385C465.968 238.904 456.162 226.641 452.376 222.546C457.809 215.828 463.817 209.846 469.975 203.806Z"/>
	<path fill="#08DDD6" d="M413.926 203.817C421.284 206.738 428.181 216.02 433.027 222.052C427.052 228.637 420.865 234.931 414.576 241.213C407.218 237.205 400.923 228.169 395.649 221.688L413.926 203.817Z"/>
	<path fill="#00618A" d="M353.655 203.048C360.357 209.346 366.76 215.97 373.23 222.504C366.669 229.214 360.258 236.019 353.561 242.604C346.771 236.213 340.496 229.4 334.275 222.461C340.583 215.81 346.931 209.283 353.655 203.048Z"/>
	<path fill="#FE9F00" d="M523.998 225.403C530.162 226.266 536.583 225.676 542.799 225.528Q553.682 225.289 564.568 225.327C583.121 225.344 601.708 225.937 620.249 225.86C641.646 225.77 663.132 224.66 684.526 225.441L684.497 248.312C662.246 247.36 639.774 247.729 617.5 247.79L523.981 248.033L523.998 225.403Z"/>
	<path fill="#FECF2A" d="M524.292 196.998L684.533 196.694L684.526 225.441C663.132 224.66 641.646 225.77 620.249 225.86C601.708 225.937 583.121 225.344 564.568 225.327Q553.682 225.289 542.799 225.528C536.583 225.676 530.162 226.266 523.998 225.403Q524.021 211.199 524.292 196.998Z"/>
	<path fill="#08DDD6" d="M528.786 288.026L622.76 287.967C642.901 287.922 662.871 287.294 683.018 288.196L682.976 349.114C682.843 363.989 682.299 378.841 682.582 393.722C677.632 391.499 673.689 387.519 669.542 384.136L667.989 382.194C666.573 379.85 663.582 377.91 661.354 376.344C650.899 368.998 639.737 362.339 629.069 355.27L559.046 308.76C549.044 302.189 537.329 296.482 528.786 288.026Z"/>
	<path fill="#04B2C4" d="M669.542 384.136C673.689 387.519 677.632 391.499 682.582 393.722C684.199 409.76 682.899 426.234 682.951 442.361L682.993 549.438C678.3 548.331 623.076 508.807 613.786 502.552C602.053 494.652 589.908 487.401 578.284 479.323C574.473 476.675 570.034 473.915 566.895 470.499C576.994 470.544 587.086 470.356 597.185 470.557C604.129 462.651 610.658 454.399 617.645 446.53C624.12 442.85 636.561 424.611 641.388 417.904C650.452 406.46 661.478 396.39 669.542 384.136Z"/>
	<path fill="#048BA3" d="M548.434 470.176C554.586 470.472 560.757 470.208 566.895 470.499C570.034 473.915 574.473 476.675 578.284 479.323C589.908 487.401 602.053 494.652 613.786 502.552C623.076 508.807 678.3 548.331 682.993 549.438C683.424 564.738 683.039 580.113 683.019 595.421Q683.219 624.704 682.916 653.987L676.651 658.87C645.441 634.756 612.521 613.143 580.186 590.608C570.138 583.606 560.244 572.53 548.46 568.856Q548.148 519.515 548.434 470.176Z"/>
	<path fill="#00618A" d="M548.46 568.856C560.244 572.53 570.138 583.606 580.186 590.608C612.521 613.143 645.441 634.756 676.651 658.87C642.822 684.647 607.609 708.859 573.201 733.867Q555.039 747.216 536.695 760.314C528.901 765.919 521.306 772.591 512.402 776.364C512.065 775.474 512.042 723.436 512.261 718.689C512.443 714.731 513.049 710.891 513.779 707.002C515.49 698.474 515.409 689.811 518.063 681.442C529.296 673.455 538.718 661.024 547.162 650.217C549.989 646.836 548.473 577.636 548.46 568.856Z"/>
	<path fill="#00386F" d="M341.248 476.519C353.464 482.795 363.684 492.469 374.801 500.462C399.829 518.46 424.884 536.739 451.077 553.002C451.714 559.856 451.502 566.802 451.523 573.681L451.627 604.835L452.027 706.976L513.779 707.002C513.049 710.891 512.443 714.731 512.261 718.689C512.042 723.436 512.065 775.474 512.402 776.364C509.788 776.44 503.218 771.519 500.843 769.842C492.525 763.971 485.182 756.868 476.945 750.91C431.731 718.204 386.006 685.826 342.01 651.481C340.514 630.711 341.69 609.795 341.893 588.998C342.089 568.838 341.665 548.692 341.593 528.535C341.532 511.214 341.891 493.827 341.248 476.519Z"/>
	<path fill="#048BA3" d="M347.473 288.028L462.273 287.978C484.447 287.95 506.613 287.431 528.786 288.026C537.329 296.482 549.044 302.189 559.046 308.76L629.069 355.27C639.737 362.339 650.899 368.998 661.354 376.344C663.582 377.91 666.573 379.85 667.989 382.194C660.947 381.273 653.7 381.74 646.615 381.839Q632.362 382.078 618.107 381.942Q552.899 381.162 487.686 381.506Q455.929 381.888 424.171 381.544C411.747 381.447 399.375 380.589 386.972 381.58C381.074 382.843 367.352 394.047 363.309 398.983C357.109 405.979 350.284 412.604 343.359 418.881L340.988 417.226C339.294 401.013 340.498 384.981 340.534 368.744Q340.498 328.359 340.89 287.978L347.473 288.028Z"/>
	<path fill="#00386F" d="M340.89 287.978L347.473 288.028C360.006 297.058 373.118 305.283 385.972 313.847Q414.394 333.147 443.171 351.916C457.993 361.545 474.189 370.069 487.686 381.506Q455.929 381.888 424.171 381.544C411.747 381.447 399.375 380.589 386.972 381.58C381.074 382.843 367.352 394.047 363.309 398.983C357.109 405.979 350.284 412.604 343.359 418.881L340.988 417.226C339.294 401.013 340.498 384.981 340.534 368.744Q340.498 328.359 340.89 287.978Z"/>
	<path fill="#011D3F" d="M386.972 381.58C399.375 380.589 411.747 381.447 424.171 381.544Q455.929 381.888 487.686 381.506Q552.899 381.163 618.107 381.942Q632.362 382.078 646.615 381.839C653.7 381.74 660.947 381.273 667.989 382.194L669.542 384.136C661.478 396.39 650.452 406.46 641.388 417.904C636.561 424.611 624.12 442.85 617.645 446.53C610.658 454.399 604.129 462.651 597.185 470.557C587.086 470.356 576.994 470.544 566.895 470.499C560.757 470.208 554.586 470.472 548.434 470.176Q548.148 519.516 548.46 568.856C548.473 577.636 549.989 646.836 547.162 650.217C538.718 661.024 529.296 673.455 518.063 681.442C515.409 689.811 515.49 698.474 513.779 707.002L452.027 706.976L451.627 604.835L451.523 573.681C451.502 566.802 451.714 559.856 451.077 553.002C424.884 536.739 399.829 518.46 374.801 500.462C363.684 492.469 353.464 482.795 341.248 476.519C340.503 469.161 340.949 461.443 340.974 454.045L340.988 417.226L343.359 418.881C350.284 412.604 357.109 405.979 363.309 398.983C367.352 394.047 381.074 382.843 386.972 381.58Z"/>
	<path fill="#00618A" d="M340.988 417.226L343.359 418.881L397.849 469.513L451.24 469.503C450.993 497.279 450.386 525.236 451.077 553.002C424.884 536.739 399.829 518.46 374.801 500.462C363.684 492.469 353.464 482.795 341.248 476.519C340.503 469.161 340.949 461.443 340.974 454.045L340.988 417.226Z"/>
	<path fill="#B3BEC1" d="M363.309 398.983C367.352 394.047 381.074 382.843 386.972 381.58C388.135 384.94 417.884 412.14 423.767 418.024L510.043 418.01L509.012 580.354C509.008 603.543 508.5 626.851 509.466 650.021C521.863 650.004 534.828 649.273 547.162 650.217C538.718 661.024 529.296 673.455 518.063 681.442C504.752 681.879 491.309 681.497 477.983 681.495L477.836 445.989L412.744 446.516C397.279 430.227 379.349 415.256 363.309 398.983Z"/>
	<path fill="#F2F4F4" d="M386.972 381.58C399.375 380.589 411.747 381.447 424.171 381.544Q455.929 381.888 487.686 381.506Q552.899 381.163 618.107 381.942Q632.362 382.078 646.615 381.839C653.7 381.74 660.947 381.273 667.989 382.194L669.542 384.136C661.478 396.39 650.452 406.46 641.388 417.904C636.561 424.611 624.12 442.85 617.645 446.53C610.658 454.399 604.129 462.651 597.185 470.557C587.086 470.356 576.994 470.544 566.895 470.499C560.757 470.208 554.586 470.472 548.434 470.176Q548.148 519.516 548.46 568.856C548.473 577.636 549.989 646.836 547.162 650.217C534.828 649.273 521.863 650.004 509.466 650.021C508.5 626.851 509.008 603.543 509.012 580.354L510.043 418.01L423.767 418.024C417.884 412.14 388.135 384.94 386.972 381.58Z"/>
	<path fill="#B3BEC1" d="M548.168 418.171C564.269 419.273 580.634 418.602 596.766 418.546C611.659 418.495 626.517 419.102 641.388 417.904C636.561 424.611 624.12 442.85 617.645 446.53C610.658 454.399 604.129 462.651 597.185 470.557C587.086 470.356 576.994 470.544 566.895 470.499C560.757 470.208 554.586 470.472 548.434 470.176L548.505 446.686Q548.54 432.426 548.168 418.171Z"/>
	<path fill="#011D3F" d="M548.505 446.686C557.402 446.15 566.433 446.597 575.342 446.637L617.645 446.53C610.658 454.399 604.129 462.651 597.185 470.557C587.086 470.356 576.994 470.544 566.895 470.499C560.757 470.208 554.586 470.472 548.434 470.176L548.505 446.686Z"/>
</svg>
